<?xml version="1.0" encoding="UTF-8" standalone="no"?>
<!DOCTYPE svg PUBLIC "-//W3C//DTD SVG 1.1//EN" "http://www.w3.org/Graphics/SVG/1.1/DTD/svg11.dtd">
<svg xmlns="http://www.w3.org/2000/svg" version="1.1" viewBox="0.00 0.00 729.00 395.00">
<g stroke-width="4.00" fill="none" stroke-linecap="butt">
<path stroke="#151a44" vector-effect="non-scaling-stroke" d="
  M 511.93 59.00
  C 504.61 59.96 491.33 61.62 486.51 68.08
  Q 484.74 70.44 487.64 69.90
  C 507.15 66.27 525.62 62.97 545.35 69.50
  Q 545.47 69.54 545.49 69.61
  Q 545.51 69.70 545.48 69.87
  Q 545.43 70.11 545.19 70.05
  Q 529.14 66.19 515.16 74.74
  A 0.32 0.31 28.1 0 0 515.34 75.32
  C 532.42 74.88 556.87 73.17 568.16 87.92
  A 0.38 0.38 0.0 0 1 567.64 88.46
  Q 558.39 81.75 547.22 85.04
  A 0.79 0.79 0.0 0 0 547.13 86.53
  C 555.13 89.98 563.11 90.47 571.27 95.63
  A 0.62 0.61 43.0 0 0 571.97 95.61
  L 572.48 95.24
  A 0.13 0.13 0.0 0 1 572.68 95.30
  Q 572.73 95.44 572.77 95.58
  Q 572.86 95.88 572.56 95.98
  Q 572.43 96.02 572.30 96.07
  A 0.12 0.12 0.0 0 0 572.24 96.26
  L 575.98 100.31
  Q 576.36 100.73 576.88 100.49
  Q 579.34 99.36 582.02 99.49
  Q 582.64 99.53 582.80 98.92
  C 590.04 71.43 574.14 58.21 558.19 40.09
  Q 547.89 28.39 545.12 12.64
  A 1.67 1.67 0.0 0 0 541.98 12.19
  C 538.94 18.33 540.43 28.24 543.16 33.98
  C 545.08 38.00 548.88 40.72 552.22 43.77
  Q 552.50 44.02 552.17 44.30
  Q 551.87 44.57 551.53 44.35
  Q 532.04 31.63 508.75 29.35
  C 471.45 25.70 437.58 32.26 408.40 56.38
  Q 403.27 60.62 400.27 67.27
  C 395.84 77.07 411.69 76.71 416.43 76.11
  C 436.79 73.54 456.69 68.18 476.69 63.69
  C 480.96 62.73 487.11 61.78 492.24 60.41
  C 499.88 58.35 504.97 57.46 511.92 58.12
  Q 515.85 58.49 511.93 59.00"
/>
<path stroke="#151a44" vector-effect="non-scaling-stroke" d="
  M 581.07 119.64
  A 0.49 0.49 0.0 0 1 580.19 119.20
  C 581.99 114.87 584.14 108.24 581.61 103.90
  A 1.32 1.31 -7.6 0 0 580.83 103.31
  C 576.55 102.20 571.00 107.05 568.27 109.96
  A 0.70 0.69 -8.4 0 1 567.16 109.14
  L 569.55 105.00
  A 0.68 0.66 44.2 0 0 569.53 104.28
  C 567.59 101.32 562.24 105.04 560.70 106.74
  A 0.89 0.89 0.0 0 0 560.49 107.53
  Q 560.69 108.54 561.54 109.13
  Q 561.93 109.41 562.03 109.87
  L 562.56 112.32
  Q 562.67 112.83 563.19 112.78
  Q 565.63 112.56 567.73 111.33
  Q 568.13 111.09 568.60 111.14
  L 573.80 111.72
  A 0.52 0.52 0.0 0 0 574.38 111.28
  L 574.67 109.35
  A 0.41 0.41 0.0 0 1 575.45 109.25
  C 577.60 114.36 575.76 120.32 572.70 124.83
  Q 572.30 125.43 573.01 125.36
  Q 581.26 124.55 588.42 128.47
  A 0.30 0.30 0.0 0 0 588.86 128.24
  Q 589.78 120.51 586.71 113.47
  A 1.05 1.05 0.0 0 0 584.85 113.35
  L 581.07 119.64"
/>
<path stroke="#808080" vector-effect="non-scaling-stroke" d="
  M 557.78 110.91
  Q 557.35 111.28 556.30 111.51"
/>
<path stroke="#808080" vector-effect="non-scaling-stroke" d="
  M 555.04 112.00
  Q 554.98 112.31 554.56 112.25"
/>
<path stroke="#808080" vector-effect="non-scaling-stroke" d="
  M 552.73 113.20
  Q 552.46 113.47 552.24 113.44"
/>
<path stroke="#808080" vector-effect="non-scaling-stroke" d="
  M 549.98 114.99
  Q 549.06 115.56 549.38 115.06"
/>
<path stroke="#808080" vector-effect="non-scaling-stroke" d="
  M 546.99 117.05
  L 537.65 125.95
  Q 537.27 126.31 537.43 126.81
  Q 538.80 130.92 537.66 135.07"
/>
<path stroke="#808080" vector-effect="non-scaling-stroke" d="
  M 539.89 135.08
  Q 541.69 135.29 542.01 134.01"
/>
<path stroke="#808080" vector-effect="non-scaling-stroke" d="
  M 542.73 131.67
  L 543.92 129.87"
/>
<path stroke="#808080" vector-effect="non-scaling-stroke" d="
  M 545.49 127.70
  L 545.98 126.95"
/>
<path stroke="#808080" vector-effect="non-scaling-stroke" d="
  M 546.74 125.69
  Q 546.73 125.17 547.19 125.03"
/>
<path stroke="#808080" vector-effect="non-scaling-stroke" d="
  M 549.59 122.15
  L 552.94 118.75"
/>
<path stroke="#808080" vector-effect="non-scaling-stroke" d="
  M 554.58 117.46
  Q 555.14 116.78 555.73 116.79"
/>
<path stroke="#808080" vector-effect="non-scaling-stroke" d="
  M 558.08 115.01
  Q 559.99 113.67 560.17 110.91"
/>
<path stroke="#808080" vector-effect="non-scaling-stroke" d="
  M 566.73 113.89
  Q 560.91 115.72 556.25 119.28"
/>
<path stroke="#808080" vector-effect="non-scaling-stroke" d="
  M 552.75 122.21
  L 551.79 123.51"
/>
<path stroke="#808080" vector-effect="non-scaling-stroke" d="
  M 549.50 126.29
  L 548.81 127.26"
/>
<path stroke="#808080" vector-effect="non-scaling-stroke" d="
  M 548.20 128.24
  Q 548.18 128.48 547.98 128.76"
/>
<path stroke="#808080" vector-effect="non-scaling-stroke" d="
  M 547.27 130.30
  Q 546.68 131.79 547.26 132.48"
/>
<path stroke="#808080" vector-effect="non-scaling-stroke" d="
  M 548.17 138.00
  L 551.96 134.75"
/>
<path stroke="#808080" vector-effect="non-scaling-stroke" d="
  M 554.06 132.89
  L 568.06 125.84
  Q 568.39 125.68 568.55 125.35
  Q 568.69 125.07 568.94 125.08"
/>
<path stroke="#808080" vector-effect="non-scaling-stroke" d="
  M 570.55 122.66
  Q 572.92 119.13 573.71 114.93
  Q 573.81 114.40 573.36 114.10
  Q 572.62 113.62 571.82 113.72"
/>
<path stroke="#7e5828" vector-effect="non-scaling-stroke" d="
  M 525.71 132.26
  C 525.10 134.96 530.45 135.39 531.75 135.54"
/>
<path stroke="#7e5828" vector-effect="non-scaling-stroke" d="
  M 532.78 134.95
  Q 531.05 128.10 536.12 124.86
  A 1.63 1.63 0.0 0 0 536.17 122.14
  C 530.54 118.25 525.65 126.13 525.64 131.00"
/>
<path stroke="#7e5828" vector-effect="non-scaling-stroke" d="
  M 518.74 121.66
  C 509.00 125.87 507.24 135.61 507.92 144.67
  Q 507.97 145.33 508.62 145.37
  L 517.00 146.00
  Q 517.52 146.04 517.48 145.52
  Q 516.51 133.71 519.37 122.19
  A 0.46 0.46 0.0 0 0 518.74 121.66"
/>
<path stroke="#7e5828" vector-effect="non-scaling-stroke" d="
  M 550.83 145.02
  C 557.60 137.42 569.13 136.02 578.47 138.18
  A 0.28 0.28 0.0 0 1 578.40 138.73
  Q 569.60 138.59 561.17 141.14
  Q 560.68 141.29 560.84 141.77
  C 562.83 147.65 565.10 151.93 562.30 157.90
  Q 561.59 159.42 563.26 159.46
  C 575.30 159.76 587.49 158.46 596.70 151.10
  C 608.12 141.97 586.36 131.12 580.21 129.40
  C 567.18 125.77 552.71 135.73 544.57 145.55
  A 0.34 0.34 0.0 0 1 544.00 145.20
  L 545.05 142.81
  Q 545.25 142.35 544.78 142.17
  L 543.43 141.66
  Q 543.07 141.53 542.98 141.16
  L 542.16 137.83
  Q 542.01 137.22 541.39 137.35
  Q 530.43 139.65 520.21 134.97
  Q 519.63 134.70 519.66 135.35
  C 520.20 144.93 522.21 155.33 531.50 160.41
  C 539.79 164.94 555.02 165.85 560.06 155.67
  C 562.37 151.01 561.31 146.52 558.26 142.52
  Q 557.93 142.09 557.45 142.32
  L 551.03 145.29
  Q 550.27 145.64 550.83 145.02"
/>
<path stroke="#79261c" vector-effect="non-scaling-stroke" d="
  M 501.00 156.71
  Q 508.84 151.90 517.94 150.45
  A 0.86 0.85 72.2 0 0 518.57 149.22
  C 517.57 147.22 515.64 147.61 513.68 147.60
  C 497.74 147.56 483.68 152.19 474.48 165.95
  C 471.74 170.05 467.62 182.61 473.91 185.53
  C 477.76 187.32 485.15 181.54 488.32 179.08
  C 497.87 171.68 509.70 163.94 523.41 158.64
  A 0.04 0.04 0.0 0 0 523.43 158.58
  L 519.59 152.81
  A 0.94 0.94 0.0 0 0 518.64 152.40
  Q 509.72 153.96 501.24 157.20
  A 0.27 0.27 0.0 0 1 501.00 156.71"
/>
<path stroke="#2b4f5e" vector-effect="non-scaling-stroke" d="
  M 517.28 292.45
  Q 518.22 290.18 519.82 288.30
  Q 528.28 278.34 537.91 269.54
  C 552.13 256.54 565.70 242.21 577.35 226.87
  Q 589.80 210.50 590.13 190.51
  C 590.27 181.55 587.44 169.84 586.08 159.75
  Q 586.01 159.23 585.50 159.37
  Q 577.03 161.64 568.25 162.03
  A 0.33 0.33 0.0 0 0 568.02 162.57
  C 587.76 185.86 580.31 211.00 561.47 231.50
  Q 534.83 260.49 499.35 279.28
  A 0.35 0.35 0.0 0 0 499.42 279.93
  C 503.86 281.20 503.49 290.28 502.68 293.45
  C 498.82 308.52 488.26 325.67 470.40 325.22
  C 462.02 325.01 453.63 325.22 445.28 324.58
  Q 442.72 324.39 440.48 325.19
  C 433.18 327.79 427.07 331.42 429.04 340.49
  C 429.43 342.30 430.78 343.32 432.50 343.52
  Q 458.50 346.59 479.21 330.35
  A 0.49 0.49 0.0 0 1 480.00 330.74
  L 480.00 332.31
  Q 480.00 332.99 480.69 333.00
  C 483.83 333.01 487.01 333.28 489.98 332.39
  C 507.98 326.99 520.05 308.06 523.67 290.50
  Q 524.13 288.23 524.02 287.32
  Q 523.73 285.12 522.44 286.72
  L 517.65 292.67
  A 0.22 0.22 0.0 0 1 517.28 292.45"
/>
<path stroke="#2b4f5e" vector-effect="non-scaling-stroke" d="
  M 200.48 258.62
  C 187.13 261.80 176.08 263.87 162.08 269.87
  Q 139.14 279.69 116.87 290.93
  C 97.45 300.74 78.80 308.51 57.35 312.95
  Q 55.14 313.41 55.05 314.65
  Q 54.95 316.13 56.42 316.32
  C 69.34 318.02 82.47 318.07 94.30 312.87
  Q 99.18 310.72 104.07 308.59
  Q 104.36 308.47 104.53 308.55
  Q 104.83 308.68 104.55 308.84
  C 79.48 322.97 52.97 328.84 25.19 334.93
  C 22.10 335.61 19.41 336.63 16.67 337.87
  A 1.55 1.55 0.0 0 0 16.20 340.36
  C 27.52 352.04 64.56 347.67 78.78 343.89
  C 99.83 338.28 119.67 330.06 138.43 318.98
  Q 158.75 306.99 179.00 294.88
  C 181.65 293.30 185.21 291.68 188.26 289.87
  A 0.21 0.21 0.0 0 1 188.48 290.22
  L 170.30 301.72
  Q 167.97 303.19 170.72 303.22
  Q 176.28 303.28 182.89 301.03
  C 195.35 296.77 208.75 291.41 220.91 288.74
  Q 228.10 287.16 237.00 286.00
  Q 237.97 285.88 238.31 286.23
  A 0.21 0.20 -29.1 0 1 238.21 286.57
  C 232.20 288.15 196.15 300.24 195.66 307.48
  A 0.63 0.62 -86.3 0 0 196.24 308.15
  Q 199.30 308.36 201.26 307.79
  C 228.40 299.89 256.94 290.78 285.45 291.61
  A 0.38 0.38 0.0 0 1 285.54 292.35
  C 277.22 294.66 255.36 299.68 250.07 308.70
  A 1.71 1.71 0.0 0 0 251.05 311.20
  C 256.29 312.80 267.77 308.64 273.55 306.67
  C 281.62 303.92 291.28 300.99 299.84 300.83
  Q 300.19 300.83 300.14 301.17
  Q 300.12 301.31 300.02 301.43
  Q 299.88 301.60 299.54 301.67
  Q 291.40 303.16 283.66 306.36
  Q 283.12 306.58 283.49 307.03
  C 288.11 312.62 337.77 304.43 346.70 302.90
  A 0.33 0.33 0.0 0 1 346.92 303.51
  C 342.85 305.81 338.06 307.25 334.65 310.75
  A 1.39 1.39 0.0 0 0 335.96 313.07
  C 358.23 307.78 380.94 303.46 403.84 304.02
  Q 405.67 304.06 404.23 302.94
  C 400.96 300.39 396.42 296.03 392.17 295.16
  C 365.89 289.80 342.36 281.44 315.26 272.20
  C 274.74 258.39 233.81 234.97 189.28 247.57
  C 186.70 248.30 165.91 255.48 170.26 260.38
  A 1.64 1.57 75.4 0 0 171.06 260.87
  C 173.96 261.62 176.48 261.76 179.63 261.02
  Q 189.89 258.63 200.44 258.30
  Q 202.05 258.25 200.48 258.62"
/>
<path stroke="#7e5828" vector-effect="non-scaling-stroke" d="
  M 643.95 272.62
  Q 639.44 274.32 637.02 276.01
  Q 616.66 290.26 604.56 297.81
  C 583.22 311.11 558.66 320.46 534.54 329.76
  Q 525.18 333.37 518.85 341.87
  Q 518.51 342.32 518.87 342.75
  C 522.41 347.05 525.53 349.37 530.83 345.62
  C 537.99 340.56 545.49 334.89 552.33 330.49
  Q 583.24 310.61 617.63 297.64
  C 626.31 294.37 632.42 290.80 639.18 285.47
  A 0.13 0.13 0.0 0 1 639.35 285.66
  L 628.86 295.98"
/>
<path stroke="#7e5828" vector-effect="non-scaling-stroke" d="
  M 630.04 298.14
  Q 630.39 298.52 630.45 298.86
  Q 630.56 299.41 630.01 299.30
  Q 625.29 298.36 620.42 300.43
  Q 619.90 300.65 619.97 301.27"
/>
<path stroke="#7e5828" vector-effect="non-scaling-stroke" d="
  M 620.04 301.73
  L 624.14 302.29
  A 0.47 0.47 0.0 0 1 624.15 303.22
  C 619.75 303.93 612.82 306.74 610.73 310.97
  C 606.82 318.89 620.77 335.99 626.39 341.40
  C 629.43 344.33 631.92 345.01 635.98 344.97
  C 639.33 344.93 639.97 343.23 639.04 340.27
  C 636.68 332.73 633.08 325.66 630.68 318.07"
/>
<path stroke="#7e5828" vector-effect="non-scaling-stroke" d="
  M 630.34 316.18
  Q 629.10 304.89 636.32 296.78
  C 644.43 287.65 650.13 291.83 657.29 299.26
  Q 676.53 319.21 674.06 348.17
  Q 673.54 354.29 673.54 368.68
  A 1.47 1.45 -62.3 0 0 673.79 369.50
  C 678.41 376.19 686.15 366.70 688.48 362.71
  Q 695.93 349.90 695.24 335.24
  C 694.68 323.34 690.05 315.96 676.94 318.02
  A 0.52 0.52 0.0 0 1 676.68 317.02
  L 682.07 315.07
  Q 682.56 314.89 682.27 314.45
  Q 679.44 310.24 674.21 311.39"
/>
<path stroke="#7e5828" vector-effect="non-scaling-stroke" d="
  M 672.72 311.49
  Q 672.43 311.43 672.25 311.29
  Q 671.79 310.92 672.21 310.49
  L 673.94 308.75"
/>
<path stroke="#7e5828" vector-effect="non-scaling-stroke" d="
  M 674.15 307.92
  L 667.42 297.55
  A 0.31 0.31 0.0 0 1 667.90 297.16
  C 671.47 300.76 676.57 307.34 680.84 309.24
  Q 684.96 311.07 687.32 315.07
  A 1.47 1.44 84.6 0 0 688.05 315.69
  C 700.56 320.41 698.83 338.13 697.25 348.72
  C 696.35 354.74 696.69 359.82 696.88 365.65
  C 697.13 372.98 705.85 370.84 709.30 367.71
  Q 714.04 363.40 716.08 356.91"
/>
<path stroke="#7e5828" vector-effect="non-scaling-stroke" d="
  M 716.71 355.97
  Q 721.86 341.91 716.11 329.15
  C 712.55 321.25 706.41 317.04 697.72 318.99
  A 0.59 0.59 0.0 0 1 697.38 317.86
  L 702.29 316.02
  Q 702.62 315.89 702.37 315.64
  Q 698.58 311.95 693.55 312.33"
/>
<path stroke="#7e5828" vector-effect="non-scaling-stroke" d="
  M 691.96 312.63
  Q 690.44 312.40 688.65 313.59
  A 0.41 0.41 0.0 0 1 688.11 312.98
  L 689.99 310.76
  A 0.94 0.94 0.0 0 0 689.81 309.38
  Q 674.73 298.87 660.97 285.77
  C 657.15 282.13 650.11 273.88 645.31 272.48"
/>
<path stroke="#151a44" vector-effect="non-scaling-stroke" d="
  M 433.79 307.73
  C 445.04 317.10 464.36 324.36 478.69 319.21
  C 489.12 315.46 495.86 304.59 499.16 294.43
  C 501.00 288.77 501.48 280.88 493.24 281.04
  Q 470.25 281.47 448.39 288.55
  Q 438.19 291.85 433.54 294.53
  C 426.28 298.72 428.57 303.39 433.79 307.73"
/>
<path stroke="#151a44" vector-effect="non-scaling-stroke" d="
  M 526.58 288.25
  Q 525.11 302.62 517.00 314.53
  A 0.34 0.34 0.0 0 0 517.51 314.97
  C 523.04 309.83 532.34 295.67 527.31 288.07
  Q 526.69 287.14 526.58 288.25"
/>
<path stroke="#151a44" vector-effect="non-scaling-stroke" d="
  M 394.93 292.58
  Q 412.29 307.51 434.52 313.15
  A 0.52 0.52 0.0 0 0 434.97 312.24
  C 430.28 308.60 426.37 303.55 426.17 297.33
  Q 426.15 296.84 425.67 296.73
  Q 413.40 293.81 400.97 291.68
  Q 397.95 291.17 395.41 291.23
  A 0.77 0.77 0.0 0 0 394.93 292.58"
/>
<path stroke="#151a44" vector-effect="non-scaling-stroke" d="
  M 426.49 316.02
  Q 435.93 321.21 449.03 321.05
  Q 449.42 321.05 449.09 320.83
  Q 445.71 318.63 444.00 318.44
  Q 433.57 317.32 427.00 314.91
  Q 419.48 312.16 426.49 316.02"
/>
<path stroke="#2b4f5e" vector-effect="non-scaling-stroke" d="
  M 499.28 333.86
  Q 507.38 336.58 514.84 340.73
  A 0.75 0.75 0.0 0 0 515.82 340.51
  Q 519.66 335.05 524.85 330.83
  A 1.05 1.04 48.0 0 0 524.93 329.28
  L 515.93 320.35
  A 1.39 1.39 0.0 0 0 514.05 320.28
  L 499.13 333.07
  A 0.46 0.46 0.0 0 0 499.28 333.86"
/>
<path stroke="#7e5828" vector-effect="non-scaling-stroke" d="
  M 282.02 342.52
  C 290.05 343.32 297.25 342.99 303.62 348.79
  C 307.21 352.07 308.36 356.24 307.34 360.90
  A 0.40 0.40 0.0 0 1 306.62 361.03
  L 306.04 360.17
  Q 305.74 359.72 305.20 359.80
  C 285.25 362.58 270.76 353.53 255.31 342.67
  C 249.32 338.45 240.88 335.42 234.03 338.19"
/>
<path stroke="#7e5828" vector-effect="non-scaling-stroke" d="
  M 233.97 339.25
  C 245.81 345.57 256.93 354.22 272.06 358.17"
/>
<path stroke="#7e5828" vector-effect="non-scaling-stroke" d="
  M 273.30 358.76
  L 276.25 359.52
  Q 282.70 361.19 276.11 360.20
  Q 269.60 359.23 262.68 357.41
  C 252.64 354.75 243.78 349.28 235.18 343.61
  C 231.98 341.50 223.70 338.66 220.34 341.05
  C 212.79 346.43 234.65 362.06 238.41 364.29
  C 240.67 365.63 243.18 366.18 245.72 366.71
  Q 246.73 366.93 246.51 365.91
  L 245.86 363.03
  A 0.78 0.78 0.0 0 1 246.83 362.11
  C 251.09 363.28 249.31 370.40 257.42 366.92
  Q 257.81 366.74 257.57 366.39
  Q 256.78 365.26 257.77 364.33
  A 0.56 0.55 51.3 0 1 258.61 364.43
  Q 260.87 367.72 265.49 367.53
  C 272.11 367.26 282.86 367.12 290.65 368.16
  C 299.37 369.33 305.63 372.23 313.08 374.96
  C 317.03 376.41 323.71 373.61 327.83 372.11
  Q 355.45 362.02 386.49 353.49
  Q 395.22 351.09 426.66 345.16
  Q 427.13 345.07 426.96 344.62
  Q 423.77 336.16 428.35 328.50
  Q 428.62 328.06 428.29 327.66
  C 426.13 325.01 423.56 326.00 421.26 328.06
  Q 394.84 351.74 359.47 357.09
  C 348.43 358.76 336.08 361.76 324.94 360.40
  C 317.63 359.51 312.90 356.00 312.90 348.32
  Q 312.90 347.68 312.26 347.72
  L 309.20 347.90
  A 0.28 0.28 0.0 0 1 309.01 347.40
  C 310.68 346.02 312.77 344.51 313.53 342.52
  C 319.40 327.15 275.96 325.97 271.78 337.40
  Q 271.61 337.86 271.83 338.30
  C 273.36 341.38 277.14 342.15 280.26 342.28"
/>
<path stroke="#7e5828" vector-effect="non-scaling-stroke" d="
  M 228.26 336.04
  Q 227.94 336.41 228.00 336.74
  Q 228.11 337.41 228.73 337.53
  A 0.77 0.77 0.0 0 0 229.61 336.61
  Q 229.53 336.24 228.99 335.95"
/>
<path stroke="#7e5828" vector-effect="non-scaling-stroke" d="
  M 642.3546 348.0426
  A 1.20 0.55 28.5 0 0 641.5624 346.9867
  A 1.20 0.55 28.5 0 0 640.2454 346.8974
  A 1.20 0.55 28.5 0 0 641.0376 347.9533
  A 1.20 0.55 28.5 0 0 642.3546 348.0426"
/>
<path stroke="#7e5828" vector-effect="non-scaling-stroke" d="
  M 675.0694 376.3295
  A 1.37 0.66 130.0 0 0 676.4556 375.7042
  A 1.37 0.66 130.0 0 0 676.8306 374.2305
  A 1.37 0.66 130.0 0 0 675.4444 374.8558
  A 1.37 0.66 130.0 0 0 675.0694 376.3295"
/>
</g>
<path fill="#000000" d="
  M 572.85 102.54
  L 573.20 102.12
  Q 573.59 101.64 573.28 101.11
  C 569.80 95.09 551.74 91.28 543.21 89.42
  Q 541.72 89.09 541.68 87.58
  C 541.53 81.56 548.15 81.75 552.37 82.01
  A 0.37 0.37 0.0 0 0 552.68 81.41
  Q 551.93 80.49 550.74 80.22
  Q 534.03 76.49 516.97 78.59
  Q 513.38 79.03 510.37 78.27
  A 1.95 1.95 0.0 0 1 509.36 75.12
  Q 512.86 70.97 518.29 69.98
  A 0.58 0.58 0.0 0 0 518.65 69.06
  Q 517.97 68.13 516.47 68.33
  Q 505.49 69.79 494.61 71.91
  C 490.45 72.72 485.47 73.37 481.99 72.99
  C 478.06 72.56 481.01 68.44 482.12 66.87
  Q 484.00 64.20 480.84 65.00
  Q 457.16 71.04 433.74 76.94
  Q 417.34 81.08 403.53 80.02
  C 392.72 79.19 393.68 69.04 398.01 62.22
  C 402.54 55.09 407.77 51.38 415.62 46.39
  Q 448.39 25.51 487.23 25.05
  C 506.08 24.84 522.98 26.75 539.93 34.94
  A 0.86 0.85 87.1 0 0 541.03 33.72
  C 537.13 27.37 535.23 11.31 542.56 6.39
  A 1.15 1.15 0.0 0 1 543.59 6.25
  C 547.35 7.51 550.02 20.02 551.16 23.76
  C 554.02 33.13 563.27 40.62 568.95 46.99
  Q 572.79 51.30 576.69 55.56
  C 588.43 68.36 589.47 82.15 585.79 98.86
  C 585.01 102.38 585.65 105.17 585.93 108.64
  C 586.16 111.45 587.98 111.60 588.80 113.86
  Q 591.49 121.24 590.95 128.81
  A 1.80 1.77 -71.5 0 0 591.74 130.42
  C 598.15 134.64 611.02 146.02 599.52 153.52
  Q 594.90 156.54 589.62 158.24
  Q 589.16 158.39 589.11 158.88
  Q 588.65 163.55 589.50 167.25
  C 592.80 181.63 595.08 193.84 590.71 207.01
  C 589.06 211.95 585.67 219.36 582.52 224.03
  Q 568.66 244.58 549.98 260.97
  Q 538.25 271.27 527.34 282.23
  A 0.81 0.81 0.0 0 0 527.61 283.56
  Q 531.24 285.02 531.27 289.52
  C 531.34 299.82 526.13 310.08 519.26 317.24
  A 0.99 0.99 0.0 0 0 519.24 318.59
  Q 523.55 323.43 527.78 327.17
  C 529.91 329.06 531.30 327.63 533.27 326.93
  Q 553.24 319.82 562.19 315.44
  Q 569.88 311.68 572.20 310.59
  Q 603.14 296.03 631.02 276.25
  Q 635.85 272.82 641.05 270.00
  Q 643.18 268.84 645.24 269.09
  C 651.00 269.77 659.32 279.85 663.42 284.09
  Q 664.12 284.82 665.08 285.08
  Q 665.57 285.21 665.93 285.57
  C 670.60 290.20 674.83 294.52 680.35 298.68
  Q 687.28 303.90 694.46 308.77
  C 696.43 310.10 698.42 309.82 700.15 310.57
  Q 704.44 312.42 707.41 316.12
  Q 707.72 316.51 708.18 316.71
  C 714.14 319.24 717.62 324.62 720.06 330.32
  C 720.42 331.15 721.19 331.58 721.07 332.83
  C 720.94 334.18 720.91 334.58 721.68 335.54
  A 1.51 1.51 0.0 0 1 722.00 336.47
  L 722.00 346.49
  Q 722.00 347.03 721.71 347.50
  Q 720.51 349.45 721.06 351.85
  Q 721.18 352.36 720.96 352.83
  C 719.64 355.82 719.20 358.99 717.43 361.67
  C 714.13 366.70 712.62 369.59 707.03 372.51
  C 703.94 374.13 701.63 376.60 698.24 378.16
  A 1.65 1.65 0.0 0 1 695.91 376.48
  L 696.37 372.46
  A 0.76 0.71 -63.2 0 0 696.21 371.92
  L 694.20 369.55
  A 0.86 0.85 25.4 0 1 694.00 369.00
  L 694.00 361.76
  A 0.74 0.74 0.0 0 0 692.57 361.50
  Q 689.69 369.26 683.10 373.48
  C 679.84 375.56 677.18 378.22 673.74 379.87
  A 1.58 1.57 53.0 0 1 672.00 379.62
  Q 670.97 378.69 671.28 377.21
  A 1.58 1.56 -19.5 0 1 671.61 376.53
  Q 673.91 373.76 671.41 371.14
  Q 671.13 370.85 671.12 370.44
  Q 670.72 357.29 671.07 353.57
  C 671.69 346.81 671.91 342.62 671.10 337.19
  C 670.81 335.31 671.62 332.08 670.28 330.60
  Q 669.93 330.23 669.99 329.72
  C 670.21 327.81 669.11 326.25 668.75 324.78
  C 667.03 317.91 651.46 286.93 640.95 296.54
  C 638.84 298.47 634.93 302.90 635.00 305.91
  Q 635.01 306.40 634.64 306.72
  Q 633.66 307.56 634.03 308.97
  A 1.05 1.02 -37.0 0 1 633.90 309.82
  C 631.56 313.48 634.22 315.26 634.08 318.48
  Q 634.06 318.98 634.24 319.45
  Q 637.68 328.51 641.65 337.34
  Q 642.38 338.97 642.31 343.60
  Q 642.30 344.14 642.63 344.57
  L 645.96 348.95
  A 1.32 1.32 0.0 0 1 644.81 351.06
  Q 640.67 350.76 637.46 348.27
  A 1.41 1.39 60.5 0 0 636.45 347.98
  C 623.16 349.27 606.74 323.21 606.88 312.12
  Q 606.90 309.94 608.32 308.28
  C 609.12 307.35 614.08 303.50 614.18 303.19
  Q 614.32 302.79 614.10 302.45
  Q 613.82 302.01 613.34 302.21
  Q 603.54 306.22 593.93 310.64
  C 587.58 313.56 580.59 317.84 573.73 321.18
  Q 572.37 321.85 569.47 323.73
  C 567.60 324.94 565.35 325.75 563.60 326.92
  Q 545.81 338.86 527.95 350.70
  C 526.69 351.53 524.30 350.98 522.99 349.92
  C 516.39 344.58 502.21 335.49 493.52 336.23
  Q 484.30 337.02 475.05 337.09
  A 1.47 1.41 -63.5 0 0 474.15 337.41
  C 463.47 345.85 448.68 347.79 435.59 347.00
  Q 431.94 346.78 428.99 347.40
  Q 384.49 356.67 341.19 370.44
  Q 335.53 372.23 324.51 376.70
  C 323.57 377.08 322.56 377.10 321.48 377.50
  C 318.27 378.70 315.70 379.51 312.25 378.28
  C 304.64 375.56 297.57 371.78 289.19 370.64
  C 276.36 368.90 261.69 369.94 248.68 370.01
  Q 244.06 370.04 240.92 369.08
  C 233.07 366.69 225.62 359.56 220.07 353.04
  Q 217.19 349.66 216.15 346.18
  Q 214.52 340.69 215.00 334.82
  A 0.83 0.82 -11.2 0 1 215.47 334.13
  Q 217.00 333.43 218.23 334.83
  Q 221.00 337.95 225.21 336.82
  Q 225.60 336.71 225.62 336.31
  L 225.76 333.10
  A 1.54 1.54 0.0 0 1 228.43 332.11
  Q 232.23 336.15 237.71 334.72
  Q 238.19 334.60 238.67 334.74
  Q 240.50 335.30 242.05 334.46
  Q 242.48 334.24 242.88 334.51
  Q 244.01 335.29 245.49 334.96
  A 1.87 1.82 47.6 0 1 246.52 335.02
  C 255.26 338.01 262.45 343.19 269.71 348.78
  C 276.96 354.36 286.20 356.12 294.97 357.62
  C 297.81 358.10 300.13 357.33 302.86 356.89
  A 1.51 1.51 0.0 0 0 303.87 354.54
  Q 300.69 349.93 295.58 347.68
  C 294.57 347.23 292.76 347.10 291.56 346.14
  A 1.03 1.02 58.0 0 0 290.71 345.94
  Q 288.44 346.44 286.61 345.21
  Q 286.19 344.93 285.67 344.96
  Q 279.83 345.39 274.27 343.82
  C 269.86 342.57 268.56 339.50 263.09 340.00
  A 0.98 0.98 0.0 0 1 262.04 339.19
  Q 261.84 338.02 262.86 337.38
  C 265.40 335.76 268.00 334.70 270.45 332.83
  C 277.54 327.40 285.75 326.22 294.77 326.41
  C 304.30 326.60 319.61 329.67 316.86 343.13
  Q 316.76 343.61 316.39 343.94
  Q 316.06 344.23 316.03 344.52
  C 315.39 350.38 318.45 357.43 325.33 356.99
  Q 325.82 356.96 326.27 357.14
  C 330.63 358.96 333.67 357.18 337.32 357.02
  Q 339.58 356.92 341.87 357.03
  Q 342.47 357.06 343.01 356.79
  Q 345.73 355.46 348.82 356.11
  A 1.39 1.35 35.2 0 0 349.79 355.96
  Q 352.34 354.50 355.37 355.07
  Q 355.82 355.15 356.25 354.97
  Q 358.24 354.13 361.79 353.77
  C 383.12 351.61 402.53 339.99 419.40 325.90
  C 422.46 323.34 425.10 321.98 428.72 323.78
  C 431.80 325.31 433.84 325.53 436.22 323.06
  Q 436.59 322.66 436.26 322.24
  Q 435.93 321.82 435.26 322.01
  A 1.49 1.47 -43.3 0 1 434.37 321.99
  Q 427.23 319.62 422.27 316.74
  C 418.50 314.55 416.57 310.48 413.14 308.56
  Q 407.75 305.54 400.25 306.06
  Q 368.22 308.26 342.35 314.51
  C 338.53 315.43 335.13 315.88 331.45 316.21
  A 1.28 1.28 0.0 0 1 330.06 314.98
  Q 329.87 310.55 333.66 308.70
  A 0.89 0.89 0.0 0 0 333.13 307.03
  C 332.27 307.16 331.50 307.68 330.60 307.82
  Q 315.02 310.28 299.32 311.73
  C 293.56 312.26 284.98 312.91 279.70 310.26
  Q 279.25 310.04 278.96 309.62
  C 278.06 308.29 277.16 308.02 275.57 308.59
  C 267.25 311.59 258.98 314.36 250.54 314.05
  C 243.66 313.80 245.82 307.53 248.82 304.41
  C 252.22 300.88 259.97 297.93 264.59 295.89
  A 0.47 0.47 0.0 0 0 264.43 295.00
  Q 263.58 294.95 262.52 295.12
  C 242.11 298.51 217.68 306.69 201.45 311.22
  Q 197.36 312.36 193.10 310.99
  C 184.71 308.29 201.02 299.01 202.62 298.06
  A 0.52 0.52 0.0 0 0 202.18 297.12
  C 194.31 299.74 183.81 303.76 177.76 305.07
  Q 172.00 306.32 165.95 305.52
  Q 165.45 305.46 165.02 305.72
  C 152.48 313.32 139.37 322.52 127.42 328.74
  C 105.86 339.96 81.81 348.26 57.56 351.05
  C 46.77 352.30 16.86 352.80 10.03 340.24
  C 7.99 336.49 18.54 333.64 20.76 333.04
  Q 44.86 326.59 69.20 321.09
  Q 69.66 320.98 69.75 320.52
  Q 69.78 320.34 69.73 320.17
  Q 69.64 319.88 69.34 319.91
  C 65.07 320.29 53.82 320.05 50.51 316.51
  C 46.97 312.74 56.22 310.19 58.23 309.68
  C 68.40 307.07 79.08 304.75 88.88 300.98
  C 101.07 296.30 113.26 290.10 130.23 281.27
  Q 148.87 271.57 168.56 263.89
  A 0.46 0.45 -49.7 0 0 168.49 263.02
  Q 165.78 262.48 165.17 259.88
  Q 165.04 259.33 165.33 258.84
  Q 167.82 254.73 172.79 251.81
  Q 194.84 238.88 219.38 240.58
  Q 222.56 240.80 232.55 242.61
  C 238.47 243.69 244.43 244.10 250.02 245.66
  C 272.45 251.91 293.66 261.46 315.67 268.98
  Q 330.01 273.87 344.22 279.13
  C 359.94 284.96 374.06 288.79 389.86 292.07
  Q 391.32 292.37 391.28 290.88
  L 391.24 289.33
  Q 391.23 288.84 391.68 288.65
  Q 393.91 287.75 395.75 287.99
  Q 408.80 289.66 425.45 293.18
  C 427.07 293.52 428.50 294.77 430.34 293.47
  Q 435.26 289.98 442.05 287.56
  Q 465.73 279.11 489.81 278.72
  C 496.90 278.61 502.30 273.82 509.60 270.22
  Q 514.73 267.69 518.50 265.16
  C 538.06 252.02 556.01 235.96 569.71 216.68
  C 576.34 207.34 579.15 192.35 575.56 181.44
  Q 572.80 173.08 565.11 162.99
  C 563.64 161.06 562.39 160.55 560.04 161.11
  Q 559.59 161.22 559.24 161.53
  C 550.57 169.39 535.60 169.39 526.94 161.44
  A 4.87 1.59 -23.8 0 0 522.62 161.87
  Q 522.09 162.07 521.41 162.02
  Q 520.95 161.98 520.56 162.24
  Q 520.11 162.54 519.22 162.92
  Q 508.88 167.33 499.03 174.87
  Q 493.45 179.13 491.78 180.34
  C 486.83 183.90 471.33 198.38 468.02 184.25
  Q 467.05 180.14 468.25 171.84
  Q 468.32 171.37 468.65 171.02
  Q 469.20 170.43 468.99 169.53
  A 1.23 1.22 -37.1 0 1 469.12 168.62
  C 474.95 158.45 483.16 152.49 493.86 148.18
  Q 494.38 147.97 494.94 148.01
  Q 495.83 148.08 496.29 147.31
  A 0.82 0.82 0.0 0 1 497.22 146.93
  Q 499.04 147.44 500.39 146.32
  Q 500.79 146.00 501.29 146.00
  L 504.56 146.00
  Q 505.52 146.00 505.09 145.14
  L 504.32 143.61
  Q 504.09 143.15 504.04 142.63
  Q 503.34 135.71 506.59 129.83
  C 508.20 126.91 513.06 121.79 516.22 120.58
  Q 518.17 119.83 520.12 119.04
  A 0.53 0.53 0.0 0 1 520.83 119.37
  C 521.71 122.27 520.14 124.10 520.03 126.34
  Q 519.92 128.46 520.04 130.59
  Q 520.06 131.02 520.40 131.29
  L 522.26 132.79
  A 0.45 0.45 0.0 0 0 523.00 132.44
  L 523.00 130.26
  Q 523.00 129.73 523.26 129.27
  C 524.34 127.33 523.74 125.65 524.49 123.88
  C 526.01 120.25 529.27 119.39 532.45 118.28
  Q 533.00 118.08 533.54 118.31
  L 538.89 120.60
  Q 539.29 120.78 539.54 120.41
  C 540.56 118.92 543.37 115.21 545.18 114.98
  Q 545.56 114.93 545.85 114.68
  Q 549.24 111.85 553.17 109.87
  Q 553.57 109.67 553.81 109.29
  Q 556.71 104.71 561.49 102.16
  C 564.04 100.81 571.07 97.65 572.27 102.41
  Q 572.43 103.06 572.85 102.54
  Z
  M 511.93 59.00
  C 504.61 59.96 491.33 61.62 486.51 68.08
  Q 484.74 70.44 487.64 69.90
  C 507.15 66.27 525.62 62.97 545.35 69.50
  Q 545.47 69.54 545.49 69.61
  Q 545.51 69.70 545.48 69.87
  Q 545.43 70.11 545.19 70.05
  Q 529.14 66.19 515.16 74.74
  A 0.32 0.31 28.1 0 0 515.34 75.32
  C 532.42 74.88 556.87 73.17 568.16 87.92
  A 0.38 0.38 0.0 0 1 567.64 88.46
  Q 558.39 81.75 547.22 85.04
  A 0.79 0.79 0.0 0 0 547.13 86.53
  C 555.13 89.98 563.11 90.47 571.27 95.63
  A 0.62 0.61 43.0 0 0 571.97 95.61
  L 572.48 95.24
  A 0.13 0.13 0.0 0 1 572.68 95.30
  Q 572.73 95.44 572.77 95.58
  Q 572.86 95.88 572.56 95.98
  Q 572.43 96.02 572.30 96.07
  A 0.12 0.12 0.0 0 0 572.24 96.26
  L 575.98 100.31
  Q 576.36 100.73 576.88 100.49
  Q 579.34 99.36 582.02 99.49
  Q 582.64 99.53 582.80 98.92
  C 590.04 71.43 574.14 58.21 558.19 40.09
  Q 547.89 28.39 545.12 12.64
  A 1.67 1.67 0.0 0 0 541.98 12.19
  C 538.94 18.33 540.43 28.24 543.16 33.98
  C 545.08 38.00 548.88 40.72 552.22 43.77
  Q 552.50 44.02 552.17 44.30
  Q 551.87 44.57 551.53 44.35
  Q 532.04 31.63 508.75 29.35
  C 471.45 25.70 437.58 32.26 408.40 56.38
  Q 403.27 60.62 400.27 67.27
  C 395.84 77.07 411.69 76.71 416.43 76.11
  C 436.79 73.54 456.69 68.18 476.69 63.69
  C 480.96 62.73 487.11 61.78 492.24 60.41
  C 499.88 58.35 504.97 57.46 511.92 58.12
  Q 515.85 58.49 511.93 59.00
  Z
  M 581.07 119.64
  A 0.49 0.49 0.0 0 1 580.19 119.20
  C 581.99 114.87 584.14 108.24 581.61 103.90
  A 1.32 1.31 -7.6 0 0 580.83 103.31
  C 576.55 102.20 571.00 107.05 568.27 109.96
  A 0.70 0.69 -8.4 0 1 567.16 109.14
  L 569.55 105.00
  A 0.68 0.66 44.2 0 0 569.53 104.28
  C 567.59 101.32 562.24 105.04 560.70 106.74
  A 0.89 0.89 0.0 0 0 560.49 107.53
  Q 560.69 108.54 561.54 109.13
  Q 561.93 109.41 562.03 109.87
  L 562.56 112.32
  Q 562.67 112.83 563.19 112.78
  Q 565.63 112.56 567.73 111.33
  Q 568.13 111.09 568.60 111.14
  L 573.80 111.72
  A 0.52 0.52 0.0 0 0 574.38 111.28
  L 574.67 109.35
  A 0.41 0.41 0.0 0 1 575.45 109.25
  C 577.60 114.36 575.76 120.32 572.70 124.83
  Q 572.30 125.43 573.01 125.36
  Q 581.26 124.55 588.42 128.47
  A 0.30 0.30 0.0 0 0 588.86 128.24
  Q 589.78 120.51 586.71 113.47
  A 1.05 1.05 0.0 0 0 584.85 113.35
  L 581.07 119.64
  Z
  M 557.78 110.91
  Q 557.35 111.28 556.30 111.51
  Q 556.28 111.08 555.98 110.85
  A 0.56 0.56 0.0 0 0 555.22 110.91
  Q 554.59 111.60 555.04 112.00
  Q 554.98 112.31 554.56 112.25
  Q 553.79 111.18 553.00 112.00
  Q 552.39 112.63 552.73 113.20
  Q 552.46 113.47 552.24 113.44
  Q 552.27 113.23 552.19 113.08
  Q 551.98 112.65 551.54 112.83
  Q 550.03 113.43 549.98 114.99
  Q 549.06 115.56 549.38 115.06
  Q 547.63 114.45 546.63 116.77
  Q 546.56 116.95 546.74 117.00
  Q 546.86 117.03 546.99 117.05
  L 537.65 125.95
  Q 537.27 126.31 537.43 126.81
  Q 538.80 130.92 537.66 135.07
  Q 538.89 137.35 539.89 135.08
  Q 541.69 135.29 542.01 134.01
  Q 542.98 133.93 543.19 133.19
  Q 543.38 132.50 542.73 131.67
  L 543.92 129.87
  Q 545.56 130.07 546.10 128.36
  Q 546.23 127.95 545.83 127.77
  Q 545.68 127.71 545.49 127.70
  L 545.98 126.95
  Q 546.43 127.09 546.77 126.98
  A 0.59 0.59 0.0 0 0 547.13 126.20
  Q 547.02 125.93 546.74 125.69
  Q 546.73 125.17 547.19 125.03
  Q 549.31 123.99 549.59 122.15
  L 552.94 118.75
  Q 553.53 119.37 553.99 118.74
  Q 554.49 118.05 554.58 117.46
  Q 555.14 116.78 555.73 116.79
  Q 557.42 117.31 558.08 115.01
  Q 559.99 113.67 560.17 110.91
  Q 558.90 108.30 557.78 110.91
  Z
  M 566.73 113.89
  Q 560.91 115.72 556.25 119.28
  Q 554.45 118.09 552.75 122.21
  L 551.79 123.51
  Q 551.81 123.24 551.67 123.08
  Q 551.34 122.71 551.01 123.07
  L 548.94 125.32
  Q 548.57 125.71 549.03 126.00
  L 549.50 126.29
  L 548.81 127.26
  Q 548.65 126.86 548.07 127.05
  A 0.49 0.49 0.0 0 0 547.72 127.59
  Q 547.82 128.34 548.20 128.24
  Q 548.18 128.48 547.98 128.76
  Q 546.82 128.60 546.56 129.45
  Q 546.45 129.80 546.64 130.03
  Q 546.84 130.28 547.27 130.30
  Q 546.68 131.79 547.26 132.48
  Q 546.54 135.67 547.20 138.65
  Q 547.32 139.18 547.82 138.97
  Q 548.52 138.67 548.17 138.00
  L 551.96 134.75
  Q 553.53 135.34 554.06 132.89
  L 568.06 125.84
  Q 568.39 125.68 568.55 125.35
  Q 568.69 125.07 568.94 125.08
  Q 572.26 123.68 570.55 122.66
  Q 572.92 119.13 573.71 114.93
  Q 573.81 114.40 573.36 114.10
  Q 572.62 113.62 571.82 113.72
  Q 568.00 111.80 566.73 113.89
  Z
  M 525.64 131.00
  Q 525.39 130.95 525.25 131.00
  A 0.53 0.53 0.0 0 0 524.97 131.80
  Q 525.31 132.30 525.71 132.26
  C 525.10 134.96 530.45 135.39 531.75 135.54
  Q 531.88 135.90 532.54 136.06
  A 0.53 0.53 0.0 0 0 533.14 135.29
  Q 532.96 134.95 532.78 134.95
  Q 531.05 128.10 536.12 124.86
  A 1.63 1.63 0.0 0 0 536.17 122.14
  C 530.54 118.25 525.65 126.13 525.64 131.00
  Z
  M 518.74 121.66
  C 509.00 125.87 507.24 135.61 507.92 144.67
  Q 507.97 145.33 508.62 145.37
  L 517.00 146.00
  Q 517.52 146.04 517.48 145.52
  Q 516.51 133.71 519.37 122.19
  A 0.46 0.46 0.0 0 0 518.74 121.66
  Z
  M 550.83 145.02
  C 557.60 137.42 569.13 136.02 578.47 138.18
  A 0.28 0.28 0.0 0 1 578.40 138.73
  Q 569.60 138.59 561.17 141.14
  Q 560.68 141.29 560.84 141.77
  C 562.83 147.65 565.10 151.93 562.30 157.90
  Q 561.59 159.42 563.26 159.46
  C 575.30 159.76 587.49 158.46 596.70 151.10
  C 608.12 141.97 586.36 131.12 580.21 129.40
  C 567.18 125.77 552.71 135.73 544.57 145.55
  A 0.34 0.34 0.0 0 1 544.00 145.20
  L 545.05 142.81
  Q 545.25 142.35 544.78 142.17
  L 543.43 141.66
  Q 543.07 141.53 542.98 141.16
  L 542.16 137.83
  Q 542.01 137.22 541.39 137.35
  Q 530.43 139.65 520.21 134.97
  Q 519.63 134.70 519.66 135.35
  C 520.20 144.93 522.21 155.33 531.50 160.41
  C 539.79 164.94 555.02 165.85 560.06 155.67
  C 562.37 151.01 561.31 146.52 558.26 142.52
  Q 557.93 142.09 557.45 142.32
  L 551.03 145.29
  Q 550.27 145.64 550.83 145.02
  Z
  M 501.00 156.71
  Q 508.84 151.90 517.94 150.45
  A 0.86 0.85 72.2 0 0 518.57 149.22
  C 517.57 147.22 515.64 147.61 513.68 147.60
  C 497.74 147.56 483.68 152.19 474.48 165.95
  C 471.74 170.05 467.62 182.61 473.91 185.53
  C 477.76 187.32 485.15 181.54 488.32 179.08
  C 497.87 171.68 509.70 163.94 523.41 158.64
  A 0.04 0.04 0.0 0 0 523.43 158.58
  L 519.59 152.81
  A 0.94 0.94 0.0 0 0 518.64 152.40
  Q 509.72 153.96 501.24 157.20
  A 0.27 0.27 0.0 0 1 501.00 156.71
  Z
  M 517.28 292.45
  Q 518.22 290.18 519.82 288.30
  Q 528.28 278.34 537.91 269.54
  C 552.13 256.54 565.70 242.21 577.35 226.87
  Q 589.80 210.50 590.13 190.51
  C 590.27 181.55 587.44 169.84 586.08 159.75
  Q 586.01 159.23 585.50 159.37
  Q 577.03 161.64 568.25 162.03
  A 0.33 0.33 0.0 0 0 568.02 162.57
  C 587.76 185.86 580.31 211.00 561.47 231.50
  Q 534.83 260.49 499.35 279.28
  A 0.35 0.35 0.0 0 0 499.42 279.93
  C 503.86 281.20 503.49 290.28 502.68 293.45
  C 498.82 308.52 488.26 325.67 470.40 325.22
  C 462.02 325.01 453.63 325.22 445.28 324.58
  Q 442.72 324.39 440.48 325.19
  C 433.18 327.79 427.07 331.42 429.04 340.49
  C 429.43 342.30 430.78 343.32 432.50 343.52
  Q 458.50 346.59 479.21 330.35
  A 0.49 0.49 0.0 0 1 480.00 330.74
  L 480.00 332.31
  Q 480.00 332.99 480.69 333.00
  C 483.83 333.01 487.01 333.28 489.98 332.39
  C 507.98 326.99 520.05 308.06 523.67 290.50
  Q 524.13 288.23 524.02 287.32
  Q 523.73 285.12 522.44 286.72
  L 517.65 292.67
  A 0.22 0.22 0.0 0 1 517.28 292.45
  Z
  M 200.48 258.62
  C 187.13 261.80 176.08 263.87 162.08 269.87
  Q 139.14 279.69 116.87 290.93
  C 97.45 300.74 78.80 308.51 57.35 312.95
  Q 55.14 313.41 55.05 314.65
  Q 54.95 316.13 56.42 316.32
  C 69.34 318.02 82.47 318.07 94.30 312.87
  Q 99.18 310.72 104.07 308.59
  Q 104.36 308.47 104.53 308.55
  Q 104.83 308.68 104.55 308.84
  C 79.48 322.97 52.97 328.84 25.19 334.93
  C 22.10 335.61 19.41 336.63 16.67 337.87
  A 1.55 1.55 0.0 0 0 16.20 340.36
  C 27.52 352.04 64.56 347.67 78.78 343.89
  C 99.83 338.28 119.67 330.06 138.43 318.98
  Q 158.75 306.99 179.00 294.88
  C 181.65 293.30 185.21 291.68 188.26 289.87
  A 0.21 0.21 0.0 0 1 188.48 290.22
  L 170.30 301.72
  Q 167.97 303.19 170.72 303.22
  Q 176.28 303.28 182.89 301.03
  C 195.35 296.77 208.75 291.41 220.91 288.74
  Q 228.10 287.16 237.00 286.00
  Q 237.97 285.88 238.31 286.23
  A 0.21 0.20 -29.1 0 1 238.21 286.57
  C 232.20 288.15 196.15 300.24 195.66 307.48
  A 0.63 0.62 -86.3 0 0 196.24 308.15
  Q 199.30 308.36 201.26 307.79
  C 228.40 299.89 256.94 290.78 285.45 291.61
  A 0.38 0.38 0.0 0 1 285.54 292.35
  C 277.22 294.66 255.36 299.68 250.07 308.70
  A 1.71 1.71 0.0 0 0 251.05 311.20
  C 256.29 312.80 267.77 308.64 273.55 306.67
  C 281.62 303.92 291.28 300.99 299.84 300.83
  Q 300.19 300.83 300.14 301.17
  Q 300.12 301.31 300.02 301.43
  Q 299.88 301.60 299.54 301.67
  Q 291.40 303.16 283.66 306.36
  Q 283.12 306.58 283.49 307.03
  C 288.11 312.62 337.77 304.43 346.70 302.90
  A 0.33 0.33 0.0 0 1 346.92 303.51
  C 342.85 305.81 338.06 307.25 334.65 310.75
  A 1.39 1.39 0.0 0 0 335.96 313.07
  C 358.23 307.78 380.94 303.46 403.84 304.02
  Q 405.67 304.06 404.23 302.94
  C 400.96 300.39 396.42 296.03 392.17 295.16
  C 365.89 289.80 342.36 281.44 315.26 272.20
  C 274.74 258.39 233.81 234.97 189.28 247.57
  C 186.70 248.30 165.91 255.48 170.26 260.38
  A 1.64 1.57 75.4 0 0 171.06 260.87
  C 173.96 261.62 176.48 261.76 179.63 261.02
  Q 189.89 258.63 200.44 258.30
  Q 202.05 258.25 200.48 258.62
  Z
  M 643.95 272.62
  Q 639.44 274.32 637.02 276.01
  Q 616.66 290.26 604.56 297.81
  C 583.22 311.11 558.66 320.46 534.54 329.76
  Q 525.18 333.37 518.85 341.87
  Q 518.51 342.32 518.87 342.75
  C 522.41 347.05 525.53 349.37 530.83 345.62
  C 537.99 340.56 545.49 334.89 552.33 330.49
  Q 583.24 310.61 617.63 297.64
  C 626.31 294.37 632.42 290.80 639.18 285.47
  A 0.13 0.13 0.0 0 1 639.35 285.66
  L 628.86 295.98
  Q 626.68 296.85 630.04 298.14
  Q 630.39 298.52 630.45 298.86
  Q 630.56 299.41 630.01 299.30
  Q 625.29 298.36 620.42 300.43
  Q 619.90 300.65 619.97 301.27
  Q 619.14 300.62 618.94 301.37
  A 0.61 0.61 0.0 0 0 619.04 301.88
  Q 619.65 302.70 620.04 301.73
  L 624.14 302.29
  A 0.47 0.47 0.0 0 1 624.15 303.22
  C 619.75 303.93 612.82 306.74 610.73 310.97
  C 606.82 318.89 620.77 335.99 626.39 341.40
  C 629.43 344.33 631.92 345.01 635.98 344.97
  C 639.33 344.93 639.97 343.23 639.04 340.27
  C 636.68 332.73 633.08 325.66 630.68 318.07
  Q 631.20 317.71 630.96 316.76
  Q 630.84 316.28 630.34 316.18
  Q 629.10 304.89 636.32 296.78
  C 644.43 287.65 650.13 291.83 657.29 299.26
  Q 676.53 319.21 674.06 348.17
  Q 673.54 354.29 673.54 368.68
  A 1.47 1.45 -62.3 0 0 673.79 369.50
  C 678.41 376.19 686.15 366.70 688.48 362.71
  Q 695.93 349.90 695.24 335.24
  C 694.68 323.34 690.05 315.96 676.94 318.02
  A 0.52 0.52 0.0 0 1 676.68 317.02
  L 682.07 315.07
  Q 682.56 314.89 682.27 314.45
  Q 679.44 310.24 674.21 311.39
  Q 673.85 310.70 673.16 310.75
  Q 672.80 310.77 672.75 311.14
  Q 672.72 311.31 672.72 311.49
  Q 672.43 311.43 672.25 311.29
  Q 671.79 310.92 672.21 310.49
  L 673.94 308.75
  Q 674.37 310.04 675.09 308.58
  A 0.58 0.58 0.0 0 0 674.55 307.74
  Q 674.30 307.75 674.15 307.92
  L 667.42 297.55
  A 0.31 0.31 0.0 0 1 667.90 297.16
  C 671.47 300.76 676.57 307.34 680.84 309.24
  Q 684.96 311.07 687.32 315.07
  A 1.47 1.44 84.6 0 0 688.05 315.69
  C 700.56 320.41 698.83 338.13 697.25 348.72
  C 696.35 354.74 696.69 359.82 696.88 365.65
  C 697.13 372.98 705.85 370.84 709.30 367.71
  Q 714.04 363.40 716.08 356.91
  Q 716.55 357.36 716.87 357.30
  Q 717.30 357.23 717.24 356.81
  Q 717.16 356.29 716.71 355.97
  Q 721.86 341.91 716.11 329.15
  C 712.55 321.25 706.41 317.04 697.72 318.99
  A 0.59 0.59 0.0 0 1 697.38 317.86
  L 702.29 316.02
  Q 702.62 315.89 702.37 315.64
  Q 698.58 311.95 693.55 312.33
  Q 692.25 310.95 691.96 312.63
  Q 690.44 312.40 688.65 313.59
  A 0.41 0.41 0.0 0 1 688.11 312.98
  L 689.99 310.76
  A 0.94 0.94 0.0 0 0 689.81 309.38
  Q 674.73 298.87 660.97 285.77
  C 657.15 282.13 650.11 273.88 645.31 272.48
  Q 645.27 272.08 644.96 271.83
  A 0.56 0.56 0.0 0 0 644.19 271.91
  Q 643.95 272.20 643.95 272.62
  Z
  M 433.79 307.73
  C 445.04 317.10 464.36 324.36 478.69 319.21
  C 489.12 315.46 495.86 304.59 499.16 294.43
  C 501.00 288.77 501.48 280.88 493.24 281.04
  Q 470.25 281.47 448.39 288.55
  Q 438.19 291.85 433.54 294.53
  C 426.28 298.72 428.57 303.39 433.79 307.73
  Z
  M 526.58 288.25
  Q 525.11 302.62 517.00 314.53
  A 0.34 0.34 0.0 0 0 517.51 314.97
  C 523.04 309.83 532.34 295.67 527.31 288.07
  Q 526.69 287.14 526.58 288.25
  Z
  M 394.93 292.58
  Q 412.29 307.51 434.52 313.15
  A 0.52 0.52 0.0 0 0 434.97 312.24
  C 430.28 308.60 426.37 303.55 426.17 297.33
  Q 426.15 296.84 425.67 296.73
  Q 413.40 293.81 400.97 291.68
  Q 397.95 291.17 395.41 291.23
  A 0.77 0.77 0.0 0 0 394.93 292.58
  Z
  M 426.49 316.02
  Q 435.93 321.21 449.03 321.05
  Q 449.42 321.05 449.09 320.83
  Q 445.71 318.63 444.00 318.44
  Q 433.57 317.32 427.00 314.91
  Q 419.48 312.16 426.49 316.02
  Z
  M 499.28 333.86
  Q 507.38 336.58 514.84 340.73
  A 0.75 0.75 0.0 0 0 515.82 340.51
  Q 519.66 335.05 524.85 330.83
  A 1.05 1.04 48.0 0 0 524.93 329.28
  L 515.93 320.35
  A 1.39 1.39 0.0 0 0 514.05 320.28
  L 499.13 333.07
  A 0.46 0.46 0.0 0 0 499.28 333.86
  Z
  M 280.26 342.28
  Q 280.13 342.97 280.50 343.02
  Q 282.06 343.23 282.02 342.52
  C 290.05 343.32 297.25 342.99 303.62 348.79
  C 307.21 352.07 308.36 356.24 307.34 360.90
  A 0.40 0.40 0.0 0 1 306.62 361.03
  L 306.04 360.17
  Q 305.74 359.72 305.20 359.80
  C 285.25 362.58 270.76 353.53 255.31 342.67
  C 249.32 338.45 240.88 335.42 234.03 338.19
  Q 233.72 337.83 233.33 337.97
  A 0.62 0.62 0.0 0 0 233.11 339.00
  Q 233.44 339.34 233.97 339.25
  C 245.81 345.57 256.93 354.22 272.06 358.17
  Q 271.67 358.71 271.77 358.88
  A 0.82 0.82 0.0 0 0 272.70 359.26
  Q 273.11 359.15 273.30 358.76
  L 276.25 359.52
  Q 282.70 361.19 276.11 360.20
  Q 269.60 359.23 262.68 357.41
  C 252.64 354.75 243.78 349.28 235.18 343.61
  C 231.98 341.50 223.70 338.66 220.34 341.05
  C 212.79 346.43 234.65 362.06 238.41 364.29
  C 240.67 365.63 243.18 366.18 245.72 366.71
  Q 246.73 366.93 246.51 365.91
  L 245.86 363.03
  A 0.78 0.78 0.0 0 1 246.83 362.11
  C 251.09 363.28 249.31 370.40 257.42 366.92
  Q 257.81 366.74 257.57 366.39
  Q 256.78 365.26 257.77 364.33
  A 0.56 0.55 51.3 0 1 258.61 364.43
  Q 260.87 367.72 265.49 367.53
  C 272.11 367.26 282.86 367.12 290.65 368.16
  C 299.37 369.33 305.63 372.23 313.08 374.96
  C 317.03 376.41 323.71 373.61 327.83 372.11
  Q 355.45 362.02 386.49 353.49
  Q 395.22 351.09 426.66 345.16
  Q 427.13 345.07 426.96 344.62
  Q 423.77 336.16 428.35 328.50
  Q 428.62 328.06 428.29 327.66
  C 426.13 325.01 423.56 326.00 421.26 328.06
  Q 394.84 351.74 359.47 357.09
  C 348.43 358.76 336.08 361.76 324.94 360.40
  C 317.63 359.51 312.90 356.00 312.90 348.32
  Q 312.90 347.68 312.26 347.72
  L 309.20 347.90
  A 0.28 0.28 0.0 0 1 309.01 347.40
  C 310.68 346.02 312.77 344.51 313.53 342.52
  C 319.40 327.15 275.96 325.97 271.78 337.40
  Q 271.61 337.86 271.83 338.30
  C 273.36 341.38 277.14 342.15 280.26 342.28
  Z
  M 228.26 336.04
  Q 227.94 336.41 228.00 336.74
  Q 228.11 337.41 228.73 337.53
  A 0.77 0.77 0.0 0 0 229.61 336.61
  Q 229.53 336.24 228.99 335.95
  Q 229.25 334.84 228.42 334.85
  A 0.52 0.51 16.2 0 0 227.99 335.08
  Q 227.54 335.73 228.26 336.04
  Z
  M 268.85 337.50
  A 0.79 0.55 0.0 0 0 268.06 336.95
  A 0.79 0.55 0.0 0 0 267.27 337.50
  A 0.79 0.55 0.0 0 0 268.06 338.05
  A 0.79 0.55 0.0 0 0 268.85 337.50
  Z
  M 217.91 338.08
  Q 217.84 337.51 217.35 337.81
  Q 216.85 338.12 217.00 338.75
  Q 217.12 339.20 217.61 339.27
  Q 218.08 339.34 218.02 338.87
  L 217.91 338.08
  Z
  M 642.3546 348.0426
  A 1.20 0.55 28.5 0 0 641.5624 346.9867
  A 1.20 0.55 28.5 0 0 640.2454 346.8974
  A 1.20 0.55 28.5 0 0 641.0376 347.9533
  A 1.20 0.55 28.5 0 0 642.3546 348.0426
  Z
  M 699.43 373.02
  Q 698.89 373.67 699.09 373.92
  Q 699.49 374.46 700.25 374.17
  A 0.44 0.44 0.0 0 0 700.46 373.51
  L 700.16 373.06
  A 0.46 0.45 48.0 0 0 699.43 373.02
  Z
  M 675.0694 376.3295
  A 1.37 0.66 130.0 0 0 676.4556 375.7042
  A 1.37 0.66 130.0 0 0 676.8306 374.2305
  A 1.37 0.66 130.0 0 0 675.4444 374.8558
  A 1.37 0.66 130.0 0 0 675.0694 376.3295
  Z"
/>
<path fill="#293388" d="
  M 511.93 59.00
  Q 515.85 58.49 511.92 58.12
  C 504.97 57.46 499.88 58.35 492.24 60.41
  C 487.11 61.78 480.96 62.73 476.69 63.69
  C 456.69 68.18 436.79 73.54 416.43 76.11
  C 411.69 76.71 395.84 77.07 400.27 67.27
  Q 403.27 60.62 408.40 56.38
  C 437.58 32.26 471.45 25.70 508.75 29.35
  Q 532.04 31.63 551.53 44.35
  Q 551.87 44.57 552.17 44.30
  Q 552.50 44.02 552.22 43.77
  C 548.88 40.72 545.08 38.00 543.16 33.98
  C 540.43 28.24 538.94 18.33 541.98 12.19
  A 1.67 1.67 0.0 0 1 545.12 12.64
  Q 547.89 28.39 558.19 40.09
  C 574.14 58.21 590.04 71.43 582.80 98.92
  Q 582.64 99.53 582.02 99.49
  Q 579.34 99.36 576.88 100.49
  Q 576.36 100.73 575.98 100.31
  L 572.24 96.26
  A 0.12 0.12 0.0 0 1 572.30 96.07
  Q 572.43 96.02 572.56 95.98
  Q 572.86 95.88 572.77 95.58
  Q 572.73 95.44 572.68 95.30
  A 0.13 0.13 0.0 0 0 572.48 95.24
  L 571.97 95.61
  A 0.62 0.61 43.0 0 1 571.27 95.63
  C 563.11 90.47 555.13 89.98 547.13 86.53
  A 0.79 0.79 0.0 0 1 547.22 85.04
  Q 558.39 81.75 567.64 88.46
  A 0.38 0.38 0.0 0 0 568.16 87.92
  C 556.87 73.17 532.42 74.88 515.34 75.32
  A 0.32 0.31 28.1 0 1 515.16 74.74
  Q 529.14 66.19 545.19 70.05
  Q 545.43 70.11 545.48 69.87
  Q 545.51 69.70 545.49 69.61
  Q 545.47 69.54 545.35 69.50
  C 525.62 62.97 507.15 66.27 487.64 69.90
  Q 484.74 70.44 486.51 68.08
  C 491.33 61.62 504.61 59.96 511.93 59.00
  Z"
/>
<path fill="#293388" d="
  M 581.07 119.64
  L 584.85 113.35
  A 1.05 1.05 0.0 0 1 586.71 113.47
  Q 589.78 120.51 588.86 128.24
  A 0.30 0.30 0.0 0 1 588.42 128.47
  Q 581.26 124.55 573.01 125.36
  Q 572.30 125.43 572.70 124.83
  C 575.76 120.32 577.60 114.36 575.45 109.25
  A 0.41 0.41 0.0 0 0 574.67 109.35
  L 574.38 111.28
  A 0.52 0.52 0.0 0 1 573.80 111.72
  L 568.60 111.14
  Q 568.13 111.09 567.73 111.33
  Q 565.63 112.56 563.19 112.78
  Q 562.67 112.83 562.56 112.32
  L 562.03 109.87
  Q 561.93 109.41 561.54 109.13
  Q 560.69 108.54 560.49 107.53
  A 0.89 0.89 0.0 0 1 560.70 106.74
  C 562.24 105.04 567.59 101.32 569.53 104.28
  A 0.68 0.66 44.2 0 1 569.55 105.00
  L 567.16 109.14
  A 0.70 0.69 -8.4 0 0 568.27 109.96
  C 571.00 107.05 576.55 102.20 580.83 103.31
  A 1.32 1.31 -7.6 0 1 581.61 103.90
  C 584.14 108.24 581.99 114.87 580.19 119.20
  A 0.49 0.49 0.0 0 0 581.07 119.64
  Z"
/>
<path fill="#ffffff" d="
  M 557.78 110.91
  L 560.17 110.91
  Q 559.99 113.67 558.08 115.01
  L 555.73 116.79
  Q 555.14 116.78 554.58 117.46
  Q 553.52 117.89 552.94 118.75
  L 549.59 122.15
  Q 547.92 123.33 547.19 125.03
  Q 546.73 125.17 546.74 125.69
  Q 546.12 126.13 545.98 126.95
  L 545.49 127.70
  L 543.92 129.87
  L 542.73 131.67
  Q 541.84 132.79 542.01 134.01
  Q 541.69 135.29 539.89 135.08
  L 537.66 135.07
  Q 538.80 130.92 537.43 126.81
  Q 537.27 126.31 537.65 125.95
  L 546.99 117.05
  Q 548.40 116.48 549.38 115.06
  Q 549.06 115.56 549.98 114.99
  L 552.24 113.44
  Q 552.46 113.47 552.73 113.20
  Q 553.78 112.98 554.56 112.25
  Q 554.98 112.31 555.04 112.00
  Q 555.77 112.06 556.30 111.51
  Q 557.35 111.28 557.78 110.91
  Z"
/>
<path fill="#ffffff" d="
  M 571.82 113.72
  Q 572.62 113.62 573.36 114.10
  Q 573.81 114.40 573.71 114.93
  Q 572.92 119.13 570.55 122.66
  L 568.94 125.08
  Q 568.69 125.07 568.55 125.35
  Q 568.39 125.68 568.06 125.84
  L 554.06 132.89
  Q 552.69 133.71 551.96 134.75
  L 548.17 138.00
  Q 548.31 134.69 547.26 132.48
  Q 546.68 131.79 547.27 130.30
  Q 547.87 129.58 547.98 128.76
  Q 548.18 128.48 548.20 128.24
  Q 548.68 127.78 548.81 127.26
  L 549.50 126.29
  L 551.79 123.51
  L 552.75 122.21
  L 556.25 119.28
  Q 560.91 115.72 566.73 113.89
  L 571.82 113.72
  Z"
/>
<path fill="#fcaf4f" d="
  M 532.78 134.95
  Q 532.01 135.18 531.75 135.54
  C 530.45 135.39 525.10 134.96 525.71 132.26
  Q 526.34 131.52 525.64 131.00
  C 525.65 126.13 530.54 118.25 536.17 122.14
  A 1.63 1.63 0.0 0 1 536.12 124.86
  Q 531.05 128.10 532.78 134.95
  Z"
/>
<path fill="#fcaf4f" d="
  M 507.92 144.67
  C 507.24 135.61 509.00 125.87 518.74 121.66
  A 0.46 0.46 0.0 0 1 519.37 122.19
  Q 516.51 133.71 517.48 145.52
  Q 517.52 146.04 517.00 146.00
  L 508.62 145.37
  Q 507.97 145.33 507.92 144.67
  Z"
/>
<path fill="#fcaf4f" d="
  M 551.03 145.29
  L 557.45 142.32
  Q 557.93 142.09 558.26 142.52
  C 561.31 146.52 562.37 151.01 560.06 155.67
  C 555.02 165.85 539.79 164.94 531.50 160.41
  C 522.21 155.33 520.20 144.93 519.66 135.35
  Q 519.63 134.70 520.21 134.97
  Q 530.43 139.65 541.39 137.35
  Q 542.01 137.22 542.16 137.83
  L 542.98 141.16
  Q 543.07 141.53 543.43 141.66
  L 544.78 142.17
  Q 545.25 142.35 545.05 142.81
  L 544.00 145.20
  A 0.34 0.34 0.0 0 0 544.57 145.55
  C 552.71 135.73 567.18 125.77 580.21 129.40
  C 586.36 131.12 608.12 141.97 596.70 151.10
  C 587.49 158.46 575.30 159.76 563.26 159.46
  Q 561.59 159.42 562.30 157.90
  C 565.10 151.93 562.83 147.65 560.84 141.77
  Q 560.68 141.29 561.17 141.14
  Q 569.60 138.59 578.40 138.73
  A 0.28 0.28 0.0 0 0 578.47 138.18
  C 569.13 136.02 557.60 137.42 550.83 145.02
  Q 550.27 145.64 551.03 145.29
  Z"
/>
<path fill="#f14c38" d="
  M 501.24 157.20
  Q 509.72 153.96 518.64 152.40
  A 0.94 0.94 0.0 0 1 519.59 152.81
  L 523.43 158.58
  A 0.04 0.04 0.0 0 1 523.41 158.64
  C 509.70 163.94 497.87 171.68 488.32 179.08
  C 485.15 181.54 477.76 187.32 473.91 185.53
  C 467.62 182.61 471.74 170.05 474.48 165.95
  C 483.68 152.19 497.74 147.56 513.68 147.60
  C 515.64 147.61 517.57 147.22 518.57 149.22
  A 0.86 0.85 72.2 0 1 517.94 150.45
  Q 508.84 151.90 501.00 156.71
  A 0.27 0.27 0.0 0 0 501.24 157.20
  Z"
/>
<path fill="#569dbb" d="
  M 517.65 292.67
  L 522.44 286.72
  Q 523.73 285.12 524.02 287.32
  Q 524.13 288.23 523.67 290.50
  C 520.05 308.06 507.98 326.99 489.98 332.39
  C 487.01 333.28 483.83 333.01 480.69 333.00
  Q 480.00 332.99 480.00 332.31
  L 480.00 330.74
  A 0.49 0.49 0.0 0 0 479.21 330.35
  Q 458.50 346.59 432.50 343.52
  C 430.78 343.32 429.43 342.30 429.04 340.49
  C 427.07 331.42 433.18 327.79 440.48 325.19
  Q 442.72 324.39 445.28 324.58
  C 453.63 325.22 462.02 325.01 470.40 325.22
  C 488.26 325.67 498.82 308.52 502.68 293.45
  C 503.49 290.28 503.86 281.20 499.42 279.93
  A 0.35 0.35 0.0 0 1 499.35 279.28
  Q 534.83 260.49 561.47 231.50
  C 580.31 211.00 587.76 185.86 568.02 162.57
  A 0.33 0.33 0.0 0 1 568.25 162.03
  Q 577.03 161.64 585.50 159.37
  Q 586.01 159.23 586.08 159.75
  C 587.44 169.84 590.27 181.55 590.13 190.51
  Q 589.80 210.50 577.35 226.87
  C 565.70 242.21 552.13 256.54 537.91 269.54
  Q 528.28 278.34 519.82 288.30
  Q 518.22 290.18 517.28 292.45
  A 0.22 0.22 0.0 0 0 517.65 292.67
  Z"
/>
<path fill="#569dbb" d="
  M 200.44 258.30
  Q 189.89 258.63 179.63 261.02
  C 176.48 261.76 173.96 261.62 171.06 260.87
  A 1.64 1.57 75.4 0 1 170.26 260.38
  C 165.91 255.48 186.70 248.30 189.28 247.57
  C 233.81 234.97 274.74 258.39 315.26 272.20
  C 342.36 281.44 365.89 289.80 392.17 295.16
  C 396.42 296.03 400.96 300.39 404.23 302.94
  Q 405.67 304.06 403.84 304.02
  C 380.94 303.46 358.23 307.78 335.96 313.07
  A 1.39 1.39 0.0 0 1 334.65 310.75
  C 338.06 307.25 342.85 305.81 346.92 303.51
  A 0.33 0.33 0.0 0 0 346.70 302.90
  C 337.77 304.43 288.11 312.62 283.49 307.03
  Q 283.12 306.58 283.66 306.36
  Q 291.40 303.16 299.54 301.67
  Q 299.88 301.60 300.02 301.43
  Q 300.12 301.31 300.14 301.17
  Q 300.19 300.83 299.84 300.83
  C 291.28 300.99 281.62 303.92 273.55 306.67
  C 267.77 308.64 256.29 312.80 251.05 311.20
  A 1.71 1.71 0.0 0 1 250.07 308.70
  C 255.36 299.68 277.22 294.66 285.54 292.35
  A 0.38 0.38 0.0 0 0 285.45 291.61
  C 256.94 290.78 228.40 299.89 201.26 307.79
  Q 199.30 308.36 196.24 308.15
  A 0.63 0.62 -86.3 0 1 195.66 307.48
  C 196.15 300.24 232.20 288.15 238.21 286.57
  A 0.21 0.20 -29.1 0 0 238.31 286.23
  Q 237.97 285.88 237.00 286.00
  Q 228.10 287.16 220.91 288.74
  C 208.75 291.41 195.35 296.77 182.89 301.03
  Q 176.28 303.28 170.72 303.22
  Q 167.97 303.19 170.30 301.72
  L 188.48 290.22
  A 0.21 0.21 0.0 0 0 188.26 289.87
  C 185.21 291.68 181.65 293.30 179.00 294.88
  Q 158.75 306.99 138.43 318.98
  C 119.67 330.06 99.83 338.28 78.78 343.89
  C 64.56 347.67 27.52 352.04 16.20 340.36
  A 1.55 1.55 0.0 0 1 16.67 337.87
  C 19.41 336.63 22.10 335.61 25.19 334.93
  C 52.97 328.84 79.48 322.97 104.55 308.84
  Q 104.83 308.68 104.53 308.55
  Q 104.36 308.47 104.07 308.59
  Q 99.18 310.72 94.30 312.87
  C 82.47 318.07 69.34 318.02 56.42 316.32
  Q 54.95 316.13 55.05 314.65
  Q 55.14 313.41 57.35 312.95
  C 78.80 308.51 97.45 300.74 116.87 290.93
  Q 139.14 279.69 162.08 269.87
  C 176.08 263.87 187.13 261.80 200.48 258.62
  Q 202.05 258.25 200.44 258.30
  Z"
/>
<path fill="#fcaf4f" d="
  M 645.31 272.48
  C 650.11 273.88 657.15 282.13 660.97 285.77
  Q 674.73 298.87 689.81 309.38
  A 0.94 0.94 0.0 0 1 689.99 310.76
  L 688.11 312.98
  A 0.41 0.41 0.0 0 0 688.65 313.59
  Q 690.44 312.40 691.96 312.63
  Q 692.62 313.51 693.55 312.33
  Q 698.58 311.95 702.37 315.64
  Q 702.62 315.89 702.29 316.02
  L 697.38 317.86
  A 0.59 0.59 0.0 0 0 697.72 318.99
  C 706.41 317.04 712.55 321.25 716.11 329.15
  Q 721.86 341.91 716.71 355.97
  Q 716.29 356.22 716.08 356.91
  Q 714.04 363.40 709.30 367.71
  C 705.85 370.84 697.13 372.98 696.88 365.65
  C 696.69 359.82 696.35 354.74 697.25 348.72
  C 698.83 338.13 700.56 320.41 688.05 315.69
  A 1.47 1.44 84.6 0 1 687.32 315.07
  Q 684.96 311.07 680.84 309.24
  C 676.57 307.34 671.47 300.76 667.90 297.16
  A 0.31 0.31 0.0 0 0 667.42 297.55
  L 674.15 307.92
  Q 673.94 308.32 673.94 308.75
  L 672.21 310.49
  Q 671.79 310.92 672.25 311.29
  Q 672.43 311.43 672.72 311.49
  Q 672.85 311.89 673.26 311.94
  Q 673.83 312.00 674.21 311.39
  Q 679.44 310.24 682.27 314.45
  Q 682.56 314.89 682.07 315.07
  L 676.68 317.02
  A 0.52 0.52 0.0 0 0 676.94 318.02
  C 690.05 315.96 694.68 323.34 695.24 335.24
  Q 695.93 349.90 688.48 362.71
  C 686.15 366.70 678.41 376.19 673.79 369.50
  A 1.47 1.45 -62.3 0 1 673.54 368.68
  Q 673.54 354.29 674.06 348.17
  Q 676.53 319.21 657.29 299.26
  C 650.13 291.83 644.43 287.65 636.32 296.78
  Q 629.10 304.89 630.34 316.18
  Q 629.60 317.38 630.68 318.07
  C 633.08 325.66 636.68 332.73 639.04 340.27
  C 639.97 343.23 639.33 344.93 635.98 344.97
  C 631.92 345.01 629.43 344.33 626.39 341.40
  C 620.77 335.99 606.82 318.89 610.73 310.97
  C 612.82 306.74 619.75 303.93 624.15 303.22
  A 0.47 0.47 0.0 0 0 624.14 302.29
  L 620.04 301.73
  L 619.97 301.27
  Q 619.90 300.65 620.42 300.43
  Q 625.29 298.36 630.01 299.30
  Q 630.56 299.41 630.45 298.86
  Q 630.39 298.52 630.04 298.14
  L 628.86 295.98
  L 639.35 285.66
  A 0.13 0.13 0.0 0 0 639.18 285.47
  C 632.42 290.80 626.31 294.37 617.63 297.64
  Q 583.24 310.61 552.33 330.49
  C 545.49 334.89 537.99 340.56 530.83 345.62
  C 525.53 349.37 522.41 347.05 518.87 342.75
  Q 518.51 342.32 518.85 341.87
  Q 525.18 333.37 534.54 329.76
  C 558.66 320.46 583.22 311.11 604.56 297.81
  Q 616.66 290.26 637.02 276.01
  Q 639.44 274.32 643.95 272.62
  Q 644.94 273.02 645.31 272.48
  Z"
/>
<path fill="#293388" d="
  M 433.79 307.73
  C 428.57 303.39 426.28 298.72 433.54 294.53
  Q 438.19 291.85 448.39 288.55
  Q 470.25 281.47 493.24 281.04
  C 501.48 280.88 501.00 288.77 499.16 294.43
  C 495.86 304.59 489.12 315.46 478.69 319.21
  C 464.36 324.36 445.04 317.10 433.79 307.73
  Z"
/>
<path fill="#293388" d="
  M 526.58 288.25
  Q 526.69 287.14 527.31 288.07
  C 532.34 295.67 523.04 309.83 517.51 314.97
  A 0.34 0.34 0.0 0 1 517.00 314.53
  Q 525.11 302.62 526.58 288.25
  Z"
/>
<path fill="#293388" d="
  M 394.93 292.58
  A 0.77 0.77 0.0 0 1 395.41 291.23
  Q 397.95 291.17 400.97 291.68
  Q 413.40 293.81 425.67 296.73
  Q 426.15 296.84 426.17 297.33
  C 426.37 303.55 430.28 308.60 434.97 312.24
  A 0.52 0.52 0.0 0 1 434.52 313.15
  Q 412.29 307.51 394.93 292.58
  Z"
/>
<path fill="#293388" d="
  M 426.49 316.02
  Q 419.48 312.16 427.00 314.91
  Q 433.57 317.32 444.00 318.44
  Q 445.71 318.63 449.09 320.83
  Q 449.42 321.05 449.03 321.05
  Q 435.93 321.21 426.49 316.02
  Z"
/>
<path fill="#569dbb" d="
  M 499.28 333.86
  A 0.46 0.46 0.0 0 1 499.13 333.07
  L 514.05 320.28
  A 1.39 1.39 0.0 0 1 515.93 320.35
  L 524.93 329.28
  A 1.05 1.04 48.0 0 1 524.85 330.83
  Q 519.66 335.05 515.82 340.51
  A 0.75 0.75 0.0 0 1 514.84 340.73
  Q 507.38 336.58 499.28 333.86
  Z"
/>
<path fill="#fcaf4f" d="
  M 273.30 358.76
  Q 272.75 358.23 272.06 358.17
  C 256.93 354.22 245.81 345.57 233.97 339.25
  L 234.03 338.19
  C 240.88 335.42 249.32 338.45 255.31 342.67
  C 270.76 353.53 285.25 362.58 305.20 359.80
  Q 305.74 359.72 306.04 360.17
  L 306.62 361.03
  A 0.40 0.40 0.0 0 0 307.34 360.90
  C 308.36 356.24 307.21 352.07 303.62 348.79
  C 297.25 342.99 290.05 343.32 282.02 342.52
  Q 281.07 342.15 280.26 342.28
  C 277.14 342.15 273.36 341.38 271.83 338.30
  Q 271.61 337.86 271.78 337.40
  C 275.96 325.97 319.40 327.15 313.53 342.52
  C 312.77 344.51 310.68 346.02 309.01 347.40
  A 0.28 0.28 0.0 0 0 309.20 347.90
  L 312.26 347.72
  Q 312.90 347.68 312.90 348.32
  C 312.90 356.00 317.63 359.51 324.94 360.40
  C 336.08 361.76 348.43 358.76 359.47 357.09
  Q 394.84 351.74 421.26 328.06
  C 423.56 326.00 426.13 325.01 428.29 327.66
  Q 428.62 328.06 428.35 328.50
  Q 423.77 336.16 426.96 344.62
  Q 427.13 345.07 426.66 345.16
  Q 395.22 351.09 386.49 353.49
  Q 355.45 362.02 327.83 372.11
  C 323.71 373.61 317.03 376.41 313.08 374.96
  C 305.63 372.23 299.37 369.33 290.65 368.16
  C 282.86 367.12 272.11 367.26 265.49 367.53
  Q 260.87 367.72 258.61 364.43
  A 0.56 0.55 51.3 0 0 257.77 364.33
  Q 256.78 365.26 257.57 366.39
  Q 257.81 366.74 257.42 366.92
  C 249.31 370.40 251.09 363.28 246.83 362.11
  A 0.78 0.78 0.0 0 0 245.86 363.03
  L 246.51 365.91
  Q 246.73 366.93 245.72 366.71
  C 243.18 366.18 240.67 365.63 238.41 364.29
  C 234.65 362.06 212.79 346.43 220.34 341.05
  C 223.70 338.66 231.98 341.50 235.18 343.61
  C 243.78 349.28 252.64 354.75 262.68 357.41
  Q 269.60 359.23 276.11 360.20
  Q 282.70 361.19 276.25 359.52
  L 273.30 358.76
  Z"
/>
<path fill="#fcaf4f" d="
  M 228.26 336.04
  L 228.99 335.95
  Q 229.53 336.24 229.61 336.61
  A 0.77 0.77 0.0 0 1 228.73 337.53
  Q 228.11 337.41 228.00 336.74
  Q 227.94 336.41 228.26 336.04
  Z"
/>
<ellipse fill="#fcaf4f" cx="0.00" cy="0.00" transform="translate(641.30,347.47) rotate(28.5)" rx="1.20" ry="0.55"/>
<ellipse fill="#fcaf4f" cx="0.00" cy="0.00" transform="translate(675.95,375.28) rotate(130.0)" rx="1.37" ry="0.66"/>
</svg>
